<mxfile host="app.diagrams.net" modified="2024-05-17T14:50:33.042Z" agent="Mozilla/5.0 (Windows NT 10.0; Win64; x64) AppleWebKit/537.36 (KHTML, like Gecko) Chrome/124.0.0.0 Safari/537.36" etag="ZYv-1jBMj6X1tNY7XDwA" version="24.4.4" type="github">
  <diagram name="PÃ¡gina-1" id="ntha0vDGk8QH1R2kDH7f">
    <mxGraphModel dx="880" dy="460" grid="1" gridSize="10" guides="1" tooltips="1" connect="1" arrows="1" fold="1" page="1" pageScale="1" pageWidth="1169" pageHeight="827" math="0" shadow="0">
      <root>
        <mxCell id="0" />
        <mxCell id="1" parent="0" />
        <mxCell id="v7Bx9ESIPNU5SMYb1CD--1" value="User" style="swimlane;fontStyle=1;align=center;verticalAlign=top;childLayout=stackLayout;horizontal=1;startSize=26;horizontalStack=0;resizeParent=1;resizeParentMax=0;resizeLast=0;collapsible=1;marginBottom=0;whiteSpace=wrap;html=1;" vertex="1" parent="1">
          <mxGeometry x="50" y="50" width="260" height="230" as="geometry" />
        </mxCell>
        <mxCell id="v7Bx9ESIPNU5SMYb1CD--2" value="&lt;div style=&quot;&quot;&gt;&lt;span style=&quot;background-color: initial;&quot;&gt;+ login: String&lt;/span&gt;&lt;/div&gt;&lt;div&gt;&lt;div style=&quot;&quot;&gt;&lt;span style=&quot;background-color: initial;&quot;&gt;+ idUser: int&lt;/span&gt;&lt;/div&gt;&lt;div&gt;&lt;div style=&quot;&quot;&gt;&lt;span style=&quot;background-color: initial;&quot;&gt;+ adm: bool&lt;/span&gt;&lt;/div&gt;&lt;div style=&quot;&quot;&gt;+ valorMulta: float&lt;/div&gt;&lt;div style=&quot;&quot;&gt;# password: String&lt;/div&gt;&lt;div style=&quot;&quot;&gt;# email: String&lt;/div&gt;&lt;div style=&quot;&quot;&gt;# phone: String&lt;/div&gt;&lt;/div&gt;&lt;/div&gt;" style="text;strokeColor=none;fillColor=none;align=left;verticalAlign=top;spacingLeft=4;spacingRight=4;overflow=hidden;rotatable=0;points=[[0,0.5],[1,0.5]];portConstraint=eastwest;whiteSpace=wrap;html=1;" vertex="1" parent="v7Bx9ESIPNU5SMYb1CD--1">
          <mxGeometry y="26" width="260" height="144" as="geometry" />
        </mxCell>
        <mxCell id="v7Bx9ESIPNU5SMYb1CD--3" value="" style="line;strokeWidth=1;fillColor=none;align=left;verticalAlign=middle;spacingTop=-1;spacingLeft=3;spacingRight=3;rotatable=0;labelPosition=right;points=[];portConstraint=eastwest;strokeColor=inherit;" vertex="1" parent="v7Bx9ESIPNU5SMYb1CD--1">
          <mxGeometry y="170" width="260" height="8" as="geometry" />
        </mxCell>
        <mxCell id="v7Bx9ESIPNU5SMYb1CD--4" value="+ EmprestarLivro(idLivro: int): bool&lt;div&gt;+ DevolverLivro(idLivro: int): bool&lt;/div&gt;&lt;div&gt;+ ChecarEmprestimos(): vector&amp;lt;Emprestimo&amp;gt;&lt;/div&gt;" style="text;strokeColor=none;fillColor=none;align=left;verticalAlign=top;spacingLeft=4;spacingRight=4;overflow=hidden;rotatable=0;points=[[0,0.5],[1,0.5]];portConstraint=eastwest;whiteSpace=wrap;html=1;" vertex="1" parent="v7Bx9ESIPNU5SMYb1CD--1">
          <mxGeometry y="178" width="260" height="52" as="geometry" />
        </mxCell>
        <mxCell id="v7Bx9ESIPNU5SMYb1CD--5" value="Livro" style="swimlane;fontStyle=1;align=center;verticalAlign=top;childLayout=stackLayout;horizontal=1;startSize=26;horizontalStack=0;resizeParent=1;resizeParentMax=0;resizeLast=0;collapsible=1;marginBottom=0;whiteSpace=wrap;html=1;" vertex="1" parent="1">
          <mxGeometry x="740" y="50" width="160" height="154" as="geometry" />
        </mxCell>
        <mxCell id="v7Bx9ESIPNU5SMYb1CD--6" value="+ nome: String&lt;div&gt;+ idLivro: int&lt;/div&gt;&lt;div&gt;+ autor: String&lt;/div&gt;&lt;div&gt;+ editora: String&lt;/div&gt;&lt;div&gt;+ anoLancamento: String&lt;/div&gt;&lt;div&gt;+ unidadesDisponiveis: int&lt;/div&gt;" style="text;strokeColor=none;fillColor=none;align=left;verticalAlign=top;spacingLeft=4;spacingRight=4;overflow=hidden;rotatable=0;points=[[0,0.5],[1,0.5]];portConstraint=eastwest;whiteSpace=wrap;html=1;" vertex="1" parent="v7Bx9ESIPNU5SMYb1CD--5">
          <mxGeometry y="26" width="160" height="94" as="geometry" />
        </mxCell>
        <mxCell id="v7Bx9ESIPNU5SMYb1CD--7" value="" style="line;strokeWidth=1;fillColor=none;align=left;verticalAlign=middle;spacingTop=-1;spacingLeft=3;spacingRight=3;rotatable=0;labelPosition=right;points=[];portConstraint=eastwest;strokeColor=inherit;" vertex="1" parent="v7Bx9ESIPNU5SMYb1CD--5">
          <mxGeometry y="120" width="160" height="8" as="geometry" />
        </mxCell>
        <mxCell id="v7Bx9ESIPNU5SMYb1CD--8" value="+ method(type): type" style="text;strokeColor=none;fillColor=none;align=left;verticalAlign=top;spacingLeft=4;spacingRight=4;overflow=hidden;rotatable=0;points=[[0,0.5],[1,0.5]];portConstraint=eastwest;whiteSpace=wrap;html=1;" vertex="1" parent="v7Bx9ESIPNU5SMYb1CD--5">
          <mxGeometry y="128" width="160" height="26" as="geometry" />
        </mxCell>
        <mxCell id="v7Bx9ESIPNU5SMYb1CD--13" value="Admin" style="swimlane;fontStyle=1;align=center;verticalAlign=top;childLayout=stackLayout;horizontal=1;startSize=26;horizontalStack=0;resizeParent=1;resizeParentMax=0;resizeLast=0;collapsible=1;marginBottom=0;whiteSpace=wrap;html=1;" vertex="1" parent="1">
          <mxGeometry x="65" y="320" width="230" height="210" as="geometry" />
        </mxCell>
        <mxCell id="v7Bx9ESIPNU5SMYb1CD--14" value="+ field: type" style="text;strokeColor=none;fillColor=none;align=left;verticalAlign=top;spacingLeft=4;spacingRight=4;overflow=hidden;rotatable=0;points=[[0,0.5],[1,0.5]];portConstraint=eastwest;whiteSpace=wrap;html=1;" vertex="1" parent="v7Bx9ESIPNU5SMYb1CD--13">
          <mxGeometry y="26" width="230" height="26" as="geometry" />
        </mxCell>
        <mxCell id="v7Bx9ESIPNU5SMYb1CD--15" value="" style="line;strokeWidth=1;fillColor=none;align=left;verticalAlign=middle;spacingTop=-1;spacingLeft=3;spacingRight=3;rotatable=0;labelPosition=right;points=[];portConstraint=eastwest;strokeColor=inherit;" vertex="1" parent="v7Bx9ESIPNU5SMYb1CD--13">
          <mxGeometry y="52" width="230" height="8" as="geometry" />
        </mxCell>
        <mxCell id="v7Bx9ESIPNU5SMYb1CD--16" value="+ CadastrarUsuario(): bool&lt;div&gt;+ ApagarUsuatrio(idUser: int): bool&lt;/div&gt;&lt;div&gt;+ cadastrarLivros(): bool&lt;/div&gt;&lt;div&gt;+ aplicarMulta(idUser: int): bool&lt;/div&gt;&lt;div&gt;+ modificarStatusUser(idUser: int): bool&lt;/div&gt;" style="text;strokeColor=none;fillColor=none;align=left;verticalAlign=top;spacingLeft=4;spacingRight=4;overflow=hidden;rotatable=0;points=[[0,0.5],[1,0.5]];portConstraint=eastwest;whiteSpace=wrap;html=1;" vertex="1" parent="v7Bx9ESIPNU5SMYb1CD--13">
          <mxGeometry y="60" width="230" height="150" as="geometry" />
        </mxCell>
        <mxCell id="v7Bx9ESIPNU5SMYb1CD--17" value="Emprestimo" style="swimlane;fontStyle=1;align=center;verticalAlign=top;childLayout=stackLayout;horizontal=1;startSize=26;horizontalStack=0;resizeParent=1;resizeParentMax=0;resizeLast=0;collapsible=1;marginBottom=0;whiteSpace=wrap;html=1;" vertex="1" parent="1">
          <mxGeometry x="380" y="50" width="300" height="150" as="geometry" />
        </mxCell>
        <mxCell id="v7Bx9ESIPNU5SMYb1CD--18" value="&lt;div&gt;+ dataEmprestimoInicio: DATA&lt;/div&gt;&lt;div&gt;+ dataEmprestimoFim: DATA&lt;/div&gt;" style="text;strokeColor=none;fillColor=none;align=left;verticalAlign=top;spacingLeft=4;spacingRight=4;overflow=hidden;rotatable=0;points=[[0,0.5],[1,0.5]];portConstraint=eastwest;whiteSpace=wrap;html=1;" vertex="1" parent="v7Bx9ESIPNU5SMYb1CD--17">
          <mxGeometry y="26" width="300" height="74" as="geometry" />
        </mxCell>
        <mxCell id="v7Bx9ESIPNU5SMYb1CD--19" value="" style="line;strokeWidth=1;fillColor=none;align=left;verticalAlign=middle;spacingTop=-1;spacingLeft=3;spacingRight=3;rotatable=0;labelPosition=right;points=[];portConstraint=eastwest;strokeColor=inherit;" vertex="1" parent="v7Bx9ESIPNU5SMYb1CD--17">
          <mxGeometry y="100" width="300" height="8" as="geometry" />
        </mxCell>
        <mxCell id="v7Bx9ESIPNU5SMYb1CD--20" value="+ VerificarPossibilidade(idLivro: int, idUser: int): bool" style="text;strokeColor=none;fillColor=none;align=left;verticalAlign=top;spacingLeft=4;spacingRight=4;overflow=hidden;rotatable=0;points=[[0,0.5],[1,0.5]];portConstraint=eastwest;whiteSpace=wrap;html=1;" vertex="1" parent="v7Bx9ESIPNU5SMYb1CD--17">
          <mxGeometry y="108" width="300" height="42" as="geometry" />
        </mxCell>
      </root>
    </mxGraphModel>
  </diagram>
</mxfile>
